<svg xmlns="http://www.w3.org/2000/svg" viewBox="0 0 64 64" role="img" aria-labelledby="title">
  <title id="title">Glovebox simplified small-size mark</title>
  <rect width="64" height="64" rx="14" fill="#080d12"/>
  <path d="M17 29 20 17c1-3 2-4 5-4h15c3 0 4 1 5 4l3 12" fill="none" stroke="#f7f7f4" stroke-linecap="round" stroke-linejoin="round" stroke-width="4"/>
  <path d="M31 19h11l5 8H29z" fill="#0789f9"/>
  <path d="M22 21h13l6 7H20z" fill="#f7f7f4"/>
  <path d="M12 29h40l-4 17c-1 3-3 5-7 5H23c-4 0-6-2-7-5z" fill="#080d12" stroke="#f7f7f4" stroke-linejoin="round" stroke-width="4"/>
  <path d="M42 34H29c-5 0-8 3-8 6s3 6 8 6h13v-8H31v4h6v1h-8c-2 0-4-1-4-3s2-3 4-3h13z" fill="#f7f7f4"/>
</svg>
